<?xml version="1.0" standalone="no"?>
<!DOCTYPE svg PUBLIC "-//W3C//DTD SVG 20010904//EN"
 "http://www.w3.org/TR/2001/REC-SVG-20010904/DTD/svg10.dtd">
<svg version="1.0" xmlns="http://www.w3.org/2000/svg"
 width="300.000000pt" height="300.000000pt" viewBox="0 0 300.000000 300.000000"
 preserveAspectRatio="xMidYMid meet">
<metadata>
Created by potrace 1.14, written by Peter Selinger 2001-2017
</metadata>
<g transform="translate(0.000000,300.000000) scale(0.100000,-0.100000)"
fill="#000000" stroke="none">
<path d="M1605 2784 c-22 -13 -98 -43 -170 -65 -153 -49 -248 -95 -316 -157
-33 -29 -49 -39 -49 -28 0 9 -6 15 -12 14 -7 -2 -14 7 -16 20 -2 12 -6 22 -10
21 -14 -1 -137 -205 -154 -256 -25 -74 -37 -214 -38 -431 0 -149 -3 -186 -15
-198 -8 -9 -15 -24 -15 -34 0 -11 -8 -24 -19 -29 -24 -13 -38 -72 -46 -203 -9
-126 -3 -167 29 -205 18 -22 26 -49 34 -114 13 -106 41 -181 99 -267 25 -37
47 -70 49 -74 3 -5 -11 -18 -31 -29 -24 -15 -32 -24 -25 -29 7 -4 21 1 31 11
24 24 44 25 34 2 -26 -64 -25 -73 12 -114 41 -46 146 -99 243 -123 91 -23 250
-31 340 -17 115 18 268 62 307 88 39 26 51 15 33 -33 -9 -27 -9 -28 5 -10 24
32 17 86 -12 86 -8 0 -13 3 -11 8 25 51 43 82 49 82 4 0 28 -23 53 -51 25 -28
46 -46 46 -41 0 6 -22 33 -49 60 l-49 49 41 42 c23 22 65 72 92 110 49 69 50
70 97 70 79 1 138 68 192 220 43 119 35 203 -20 217 -17 4 -23 11 -19 22 23
61 98 366 111 453 17 120 12 171 -32 307 -29 89 -113 254 -126 246 -4 -3 -8
-17 -8 -31 0 -25 -1 -26 -20 -8 -24 22 -75 98 -131 197 -24 43 -47 77 -51 78
-9 0 -28 -58 -28 -86 0 -14 -6 -24 -15 -24 -8 0 -12 6 -9 13 8 22 -23 151 -51
210 l-25 55 -64 -43 c-63 -42 -181 -89 -197 -79 -5 3 -9 32 -9 65 0 32 -3 59
-7 58 -5 0 -26 -12 -48 -25z m-210 -636 c17 -2 39 -14 49 -27 17 -21 24 -22
70 -16 165 23 471 -36 552 -107 78 -68 110 -206 68 -293 -13 -28 -12 -36 11
-93 18 -43 25 -80 25 -125 0 -35 -2 -66 -5 -68 -2 -3 -20 -3 -39 -1 -29 3 -40
12 -61 48 -31 53 -79 85 -170 115 -94 30 -221 24 -293 -13 -50 -26 -50 -26
-69 -6 -41 46 -118 62 -157 33 -17 -13 -22 -11 -50 17 -39 40 -153 93 -233
108 -34 7 -93 11 -132 8 -54 -3 -71 -1 -71 9 0 26 41 135 65 174 14 21 25 47
25 56 0 70 49 144 115 175 34 16 57 18 155 14 63 -3 129 -6 145 -8z m-385
-458 l-45 -6 40 -7 c22 -4 63 -12 90 -17 28 -4 62 -13 76 -18 32 -13 89 -60
89 -75 0 -6 -15 3 -32 20 -46 43 -70 53 -123 53 -75 0 -175 -64 -175 -112 0
-16 4 -15 25 11 33 38 80 67 125 75 l35 7 -28 -18 c-35 -23 -62 -91 -53 -137
8 -43 47 -76 91 -76 29 0 32 3 28 21 -5 16 -2 20 8 17 8 -3 13 -12 11 -19 -1
-8 8 -2 22 13 32 36 41 90 22 129 -13 25 -13 29 -1 19 22 -19 38 -79 32 -127
-3 -33 -2 -42 7 -33 6 6 11 40 11 76 0 35 2 57 6 47 5 -14 8 -13 23 8 l18 24
-7 -40 c-20 -120 -105 -228 -189 -240 -89 -14 -210 29 -246 87 -22 34 -22 66
-1 178 l8 45 2 -47 c2 -76 18 -56 23 30 8 123 7 122 93 120 60 -1 60 -1 15 -8z
m77 -6 c-3 -3 -12 -4 -19 -1 -8 3 -5 6 6 6 11 1 17 -2 13 -5z m-267 -96 l-1
-43 -14 34 c-19 42 -19 51 0 51 11 0 15 -11 15 -42z m1025 -63 c22 -4 62 -16
88 -27 57 -25 73 -17 26 11 -19 12 -29 21 -24 21 6 0 24 -9 42 -20 68 -41 82
-126 43 -245 -37 -110 -112 -151 -229 -126 -130 28 -213 114 -210 218 1 21 3
29 6 18 9 -36 20 -37 27 -2 7 40 37 82 69 98 20 11 20 10 -3 -15 -32 -35 -36
-122 -7 -153 27 -31 93 -47 129 -32 66 27 86 142 35 198 l-22 23 25 -7 c44
-13 103 -49 123 -76 10 -15 22 -49 25 -75 5 -46 6 -47 13 -19 28 100 -90 200
-235 200 -68 0 -68 0 -30 12 22 6 46 10 54 8 8 -2 33 -6 55 -10z m-357 -25
c20 -12 32 -28 32 -41 0 -40 42 -185 65 -225 51 -88 128 -133 256 -150 42 -6
46 -8 33 -21 -7 -8 -15 -24 -15 -36 -3 -59 9 -83 48 -98 33 -12 29 -39 -14
-90 -89 -107 -127 -140 -243 -211 -46 -28 -140 -58 -181 -58 -49 0 -218 42
-285 71 -60 25 -108 70 -186 174 -68 90 -113 181 -123 249 -7 43 -6 46 18 55
44 17 67 47 67 89 l0 37 103 0 c96 0 106 2 138 26 19 15 63 72 99 127 80 124
118 144 188 102z m-698 -45 c0 -21 -5 -32 -15 -32 -11 0 -15 12 -15 45 0 38 2
43 15 32 8 -7 15 -27 15 -45z m787 3 c-3 -8 -6 -5 -6 6 -1 11 2 17 5 13 3 -3
4 -12 1 -19z m735 -130 c-3 -21 -20 -50 -47 -78 -56 -60 -75 -89 -76 -120 -1
-21 -2 -21 -6 -5 -3 11 -9 22 -13 25 -13 8 91 185 114 197 32 16 33 15 28 -19z
m-192 -8 c-20 -13 -33 -13 -25 0 3 6 14 10 23 10 15 0 15 -2 2 -10z m-350 -21
c0 -5 -7 -9 -15 -9 -15 0 -20 12 -9 23 8 8 24 -1 24 -14z m344 -107 c-4 -26
-9 -39 -11 -29 -5 19 -53 24 -53 5 0 -6 -3 -9 -6 -6 -9 10 24 65 48 83 28 19
33 9 22 -53z m226 -26 c0 -5 -15 -41 -34 -80 -40 -81 -78 -123 -123 -132 -31
-6 -32 -6 -27 27 4 24 17 44 44 67 28 23 41 44 46 70 3 20 13 42 21 49 17 14
73 13 73 -1z m-313 -52 c1 -34 1 -35 -14 -14 -12 16 -12 24 -3 35 16 20 16 20
17 -21z"/>
<path d="M1055 1839 c-34 -10 -93 -54 -84 -63 3 -3 20 -1 38 5 67 23 149 4
294 -69 17 -9 5 27 -21 63 -46 61 -144 89 -227 64z"/>
<path d="M1755 1702 c-16 -11 -37 -27 -45 -37 -14 -17 -12 -18 45 -11 99 11
208 -17 263 -67 26 -24 29 -9 7 33 -43 83 -193 129 -270 82z"/>
<path d="M950 1416 c0 -2 8 -10 18 -17 15 -13 16 -12 3 4 -13 16 -21 21 -21
13z"/>
<path d="M996 1379 c7 -12 91 -41 107 -37 8 1 -14 12 -49 23 -34 12 -61 18
-58 14z"/>
<path d="M1716 1226 c18 -9 63 -18 100 -20 l69 -5 -80 13 c-44 8 -89 17 -100
20 -11 4 -6 0 11 -8z"/>
<path d="M1296 1257 c-9 -12 -16 -37 -18 -55 -1 -18 -7 -31 -13 -29 -5 2 -9
12 -9 21 1 9 -3 15 -10 13 -6 -2 -12 -17 -14 -33 -2 -25 6 -38 47 -77 56 -52
80 -57 183 -36 83 16 85 18 52 35 -27 15 -59 15 -94 1 -10 -4 -27 9 -50 40
-66 87 -63 78 -45 112 14 27 14 31 0 31 -8 0 -21 -10 -29 -23z m-5 -114 c13
-17 13 -17 -6 -3 -11 8 -22 16 -24 17 -2 2 0 3 6 3 6 0 17 -8 24 -17z"/>
<path d="M1034 1075 c-9 -14 -14 -32 -10 -40 8 -22 25 -18 19 4 -3 13 2 24 16
33 24 15 27 28 6 28 -8 0 -22 -11 -31 -25z"/>
<path d="M1083 1038 c9 -13 25 -42 37 -64 11 -23 42 -64 68 -91 63 -65 125
-88 243 -88 78 0 91 3 160 37 81 41 149 92 149 113 0 11 -8 11 -37 3 -102 -28
-542 43 -604 98 -24 22 -33 17 -16 -8z m189 -67 c106 -25 280 -51 349 -52 l54
-1 -45 -15 c-99 -32 -421 22 -455 77 -9 14 2 13 97 -9z"/>
<path d="M1729 984 c12 -16 21 -41 21 -62 0 -27 3 -33 11 -25 19 19 13 62 -11
89 -31 32 -47 31 -21 -2z"/>
<path d="M1230 781 c0 -42 165 -90 210 -61 23 14 7 21 -69 30 -38 5 -86 16
-106 24 -19 8 -35 11 -35 7z"/>
<path d="M530 789 c1 -56 85 -165 150 -194 35 -16 44 -16 66 -5 l25 14 -48 24
c-26 14 -81 58 -120 100 -40 41 -73 68 -73 61z"/>
<path d="M2356 612 c-44 -48 -161 -111 -224 -119 -23 -3 -42 -9 -42 -13 0 -15
68 -40 107 -40 70 0 168 78 193 155 19 57 8 63 -34 17z"/>
<path d="M2016 563 c-6 -14 -5 -15 5 -6 7 7 10 15 7 18 -3 3 -9 -2 -12 -12z"/>
</g>
</svg>
