<?xml version="1.0" standalone="no"?>
<!DOCTYPE svg PUBLIC "-//W3C//DTD SVG 20010904//EN"
 "http://www.w3.org/TR/2001/REC-SVG-20010904/DTD/svg10.dtd">
<svg version="1.0" xmlns="http://www.w3.org/2000/svg"
 width="296.000000pt" height="296.000000pt" viewBox="0 0 296.000000 296.000000"
 preserveAspectRatio="xMidYMid meet">
<metadata>
Created by potrace 1.14, written by Peter Selinger 2001-2017
</metadata>
<g transform="translate(0.000000,296.000000) scale(0.100000,-0.100000)"
fill="#000000" stroke="none">
<path d="M1425 2718 c-11 -6 -44 -31 -73 -55 -60 -49 -137 -89 -233 -123 -86
-30 -146 -86 -189 -175 -38 -79 -51 -163 -54 -343 l-2 -122 -31 -29 c-130
-118 -64 -340 106 -361 40 -4 49 -11 93 -66 l48 -61 -21 -43 c-12 -25 -18 -52
-15 -65 5 -20 -4 -31 -62 -73 -89 -65 -115 -94 -187 -201 -44 -66 -66 -90 -81
-91 -53 0 -110 -146 -70 -179 10 -9 13 -18 7 -25 -33 -43 -44 -190 -16 -232
45 -69 194 -71 239 -2 17 26 23 82 12 115 -5 17 -1 25 25 40 37 21 79 98 73
133 -3 19 6 37 36 70 30 33 39 39 35 23 -7 -25 -12 -53 -25 -128 -12 -70 -6
-315 8 -342 21 -38 91 -46 437 -49 409 -4 457 4 470 80 12 68 11 192 -2 279
-18 124 -20 137 -32 175 -5 17 -7 32 -3 32 4 0 26 -22 50 -49 30 -36 42 -59
42 -81 0 -40 23 -80 61 -105 26 -18 28 -23 23 -71 -5 -49 -4 -53 34 -94 40
-41 41 -41 103 -39 72 3 97 13 123 47 28 36 23 129 -9 193 -24 46 -24 51 -9
66 12 13 14 26 9 61 -7 50 -59 124 -80 115 -17 -6 -35 13 -113 121 -59 81
-138 155 -189 179 -17 7 -21 18 -21 51 1 24 -6 53 -16 69 -18 26 -18 27 29 85
38 50 53 61 85 66 74 12 142 69 167 141 25 72 -6 172 -69 223 -28 23 -28 24
-25 130 2 59 0 127 -4 152 -4 25 -10 67 -13 94 -11 76 -58 169 -113 220 -39
37 -67 52 -150 80 -89 30 -112 43 -180 100 -43 36 -83 66 -89 66 -6 0 -20 -18
-33 -40 -12 -22 -26 -38 -30 -36 -4 3 -16 23 -26 46 -20 44 -21 45 -50 28z"/>
</g>
</svg>
