<svg xmlns="http://www.w3.org/2000/svg" fill="none" viewBox="0 0 85 107">
  <path fill="#fff" d="M27.5894 91.1365c-4.8339-4.4187-6.245-13.703-4.2311-20.4293 3.492 4.2408 8.3305 5.5842 13.3422 6.3425 7.737 1.1702 15.3354.7325 22.5227-2.8038.8222-.4049 1.582-.9432 2.4804-1.4885.6744 1.9566.8499 3.9318.6144 5.9422-.5728 4.8961-3.0094 8.6782-6.8848 11.5452-1.5497 1.1468-3.1895 2.1719-4.79 3.2531-4.917 3.3234-6.2473 7.2201-4.3997 12.8881.0439.139.0832.277.1825.614-2.5105-1.124-4.3443-2.76-5.7415-4.911-1.4758-2.2697-2.1779-4.7809-2.2149-7.4981-.0185-1.3223-.0185-2.6564-.1963-3.96-.4342-3.1782-1.9262-4.6012-4.7369-4.6831-2.8846-.0842-5.1664 1.6991-5.7715 4.5076-.0462.2153-.1132.4283-.1802.6787l.0047.0024Z"/>
  <path fill="url(#astrogradient)" d="M27.5894 91.1365c-4.8339-4.4187-6.245-13.703-4.2311-20.4293 3.492 4.2408 8.3305 5.5842 13.3422 6.3425 7.737 1.1702 15.3354.7325 22.5227-2.8038.8222-.4049 1.582-.9432 2.4804-1.4885.6744 1.9566.8499 3.9318.6144 5.9422-.5728 4.8961-3.0094 8.6782-6.8848 11.5452-1.5497 1.1468-3.1895 2.1719-4.79 3.2531-4.917 3.3234-6.2473 7.2201-4.3997 12.8881.0439.139.0832.277.1825.614-2.5105-1.124-4.3443-2.76-5.7415-4.911-1.4758-2.2697-2.1779-4.7809-2.2149-7.4981-.0185-1.3223-.0185-2.6564-.1963-3.96-.4342-3.1782-1.9262-4.6012-4.7369-4.6831-2.8846-.0842-5.1664 1.6991-5.7715 4.5076-.0462.2153-.1132.4283-.1802.6787l.0047.0024Z"/>
  <path fill="#fff" d="M0 69.5866s14.3139-6.9729 28.6678-6.9729l10.8223-33.4933c.4052-1.6197 1.5882-2.7205 2.9238-2.7205s2.5186 1.1008 2.9238 2.7205l10.8224 33.4933c17 0 28.6677 6.9729 28.6677 6.9729S60.5145 3.35233 60.467 3.21944C59.7692 1.2612 58.5911 0 57.0029 0H27.8274c-1.5882 0-2.7187 1.2612-3.464 3.21944C24.3108 3.34983 0 69.5866 0 69.5866Z"/>
  <defs>
    <linearGradient id="astrogradient" x1="22.4702" x2="69.1451" y1="107" y2="84.9468" gradientUnits="userSpaceOnUse">
      <stop stop-color="#D83333"/>
      <stop offset="1" stop-color="#F041FF"/>
    </linearGradient>
  </defs>
</svg>
