<svg xmlns="http://www.w3.org/2000/svg" xml:space="preserve" viewBox="0 0 113.32031 128">
  <path fill="#fff" d="M51.7089842 0 .0019531 29.855469h-.00195v59.705078l19.8242151-11.451172V54.714844c.009-.401.225266-.770797.572266-.966797a1.13 1.13 0 0 1 1.13086-.0098l24.085937 13.902344a2.275 2.275 0 0 1 1.132813 1.96875v27.800781a1.156 1.156 0 0 1-.564454.980469 1.131 1.131 0 0 1-1.125.01172v-.002l-20.269531-11.716717-19.832031 11.458984L56.6503902 128l51.703126-29.855469-19.816407-11.460937-20.261719 11.705078a1.151 1.151 0 0 1-1.125-.0098 1.145 1.145 0 0 1-.566406-.974609V69.607422c0-.818999.423813-1.558797 1.132813-1.966797l24.074218-13.904297a1.119 1.119 0 0 1 1.123051.0098c.352.195.57217.564797.57617.966797v23.396484l19.83008 11.455078V29.855469l-56.669926 32.710937 56.666016-32.710937L61.6191402 0v22.900391l20.261719 11.697265c.348.203.554688.574423.554688.982422 0 .403-.211688.773563-.554688.976563L57.7968752 50.46875a2.302 2.302 0 0 1-2.269531 0l-24.076172-13.912109a1.122 1.122 0 0 1-.560547-.976563 1.127 1.127 0 0 1 .560547-.982422l20.257812-11.697265Z"/>
</svg>
